<?xml version="1.0" encoding="UTF-8" ?>
<svg version="1.1" width="128" height="128" xmlns="http://www.w3.org/2000/svg" shape-rendering="crispEdges">
<rect x="56" y="9" width="16" height="17" fill="#000000" />
<rect x="51" y="10" width="5" height="16" fill="#000000" />
<rect x="72" y="10" width="5" height="16" fill="#000000" />
<rect x="47" y="11" width="4" height="15" fill="#000000" />
<rect x="77" y="11" width="4" height="15" fill="#000000" />
<rect x="45" y="12" width="2" height="14" fill="#000000" />
<rect x="81" y="12" width="2" height="14" fill="#000000" />
<rect x="42" y="13" width="3" height="13" fill="#000000" />
<rect x="83" y="13" width="3" height="13" fill="#000000" />
<rect x="40" y="14" width="2" height="12" fill="#000000" />
<rect x="86" y="14" width="2" height="12" fill="#000000" />
<rect x="38" y="15" width="2" height="11" fill="#000000" />
<rect x="88" y="15" width="2" height="11" fill="#000000" />
<rect x="36" y="16" width="2" height="10" fill="#000000" />
<rect x="90" y="16" width="2" height="10" fill="#000000" />
<rect x="35" y="17" width="1" height="9" fill="#000000" />
<rect x="92" y="17" width="1" height="9" fill="#000000" />
<rect x="33" y="18" width="2" height="8" fill="#000000" />
<rect x="93" y="18" width="2" height="8" fill="#000000" />
<rect x="32" y="19" width="1" height="7" fill="#000000" />
<rect x="95" y="19" width="1" height="7" fill="#000000" />
<rect x="31" y="20" width="1" height="6" fill="#000000" />
<rect x="96" y="20" width="1" height="6" fill="#000000" />
<rect x="29" y="21" width="2" height="5" fill="#000000" />
<rect x="97" y="21" width="2" height="5" fill="#000000" />
<rect x="28" y="22" width="1" height="4" fill="#000000" />
<rect x="99" y="22" width="1" height="4" fill="#000000" />
<rect x="27" y="23" width="1" height="3" fill="#000000" />
<rect x="100" y="23" width="1" height="3" fill="#000000" />
<rect x="26" y="24" width="1" height="3" fill="#000000" />
<rect x="101" y="24" width="1" height="3" fill="#000000" />
<rect x="25" y="25" width="1" height="57" fill="#000000" />
<rect x="102" y="25" width="1" height="57" fill="#000000" />
<rect x="24" y="26" width="1" height="59" fill="#000000" />
<rect x="27" y="26" width="74" height="6" fill="#FFFFFF" />
<rect x="103" y="26" width="1" height="59" fill="#000000" />
<rect x="23" y="27" width="1" height="60" fill="#000000" />
<rect x="26" y="27" width="1" height="4" fill="#FFFFFF" />
<rect x="101" y="27" width="1" height="4" fill="#FFFFFF" />
<rect x="104" y="27" width="1" height="60" fill="#000000" />
<rect x="22" y="28" width="1" height="61" fill="#000000" />
<rect x="105" y="28" width="1" height="61" fill="#000000" />
<rect x="21" y="30" width="1" height="60" fill="#000000" />
<rect x="106" y="30" width="1" height="60" fill="#000000" />
<rect x="20" y="31" width="1" height="63" fill="#000000" />
<rect x="26" y="31" width="1" height="48" fill="#000000" />
<rect x="101" y="31" width="1" height="48" fill="#000000" />
<rect x="107" y="31" width="1" height="63" fill="#000000" />
<rect x="19" y="32" width="1" height="60" fill="#000000" />
<rect x="27" y="32" width="1" height="44" fill="#000000" />
<rect x="28" y="32" width="72" height="1" fill="#FFFFFF" />
<rect x="100" y="32" width="1" height="44" fill="#000000" />
<rect x="108" y="32" width="1" height="60" fill="#000000" />
<rect x="28" y="33" width="16" height="20" fill="#000000" />
<rect x="44" y="33" width="10" height="1" fill="#FFFFFF" />
<rect x="54" y="33" width="5" height="15" fill="#000000" />
<rect x="59" y="33" width="10" height="14" fill="#FFFFFF" />
<rect x="69" y="33" width="5" height="15" fill="#000000" />
<rect x="74" y="33" width="10" height="1" fill="#FFFFFF" />
<rect x="84" y="33" width="16" height="20" fill="#000000" />
<rect x="18" y="34" width="1" height="56" fill="#000000" />
<rect x="44" y="34" width="10" height="14" fill="#000000" />
<rect x="74" y="34" width="10" height="14" fill="#000000" />
<rect x="109" y="34" width="1" height="56" fill="#000000" />
<rect x="17" y="35" width="1" height="54" fill="#000000" />
<rect x="110" y="35" width="1" height="54" fill="#000000" />
<rect x="16" y="37" width="1" height="50" fill="#000000" />
<rect x="111" y="37" width="1" height="50" fill="#000000" />
<rect x="15" y="39" width="1" height="46" fill="#000000" />
<rect x="112" y="39" width="1" height="46" fill="#000000" />
<rect x="14" y="41" width="1" height="42" fill="#000000" />
<rect x="113" y="41" width="1" height="42" fill="#000000" />
<rect x="13" y="44" width="1" height="36" fill="#000000" />
<rect x="114" y="44" width="1" height="36" fill="#000000" />
<rect x="12" y="46" width="1" height="32" fill="#000000" />
<rect x="115" y="46" width="1" height="32" fill="#000000" />
<rect x="59" y="47" width="1" height="39" fill="#000000" />
<rect x="60" y="47" width="8" height="38" fill="#FFFFFF" />
<rect x="68" y="47" width="1" height="39" fill="#000000" />
<rect x="44" y="48" width="7" height="1" fill="#000000" />
<rect x="51" y="48" width="8" height="9" fill="#FFFFFF" />
<rect x="69" y="48" width="8" height="9" fill="#FFFFFF" />
<rect x="77" y="48" width="7" height="1" fill="#000000" />
<rect x="44" y="49" width="5" height="1" fill="#000000" />
<rect x="49" y="49" width="2" height="12" fill="#FFFFFF" />
<rect x="77" y="49" width="2" height="12" fill="#FFFFFF" />
<rect x="79" y="49" width="5" height="1" fill="#000000" />
<rect x="11" y="50" width="1" height="24" fill="#000000" />
<rect x="44" y="50" width="3" height="1" fill="#000000" />
<rect x="47" y="50" width="2" height="13" fill="#FFFFFF" />
<rect x="79" y="50" width="2" height="13" fill="#FFFFFF" />
<rect x="81" y="50" width="3" height="1" fill="#000000" />
<rect x="116" y="50" width="1" height="24" fill="#000000" />
<rect x="44" y="51" width="2" height="1" fill="#000000" />
<rect x="46" y="51" width="1" height="14" fill="#FFFFFF" />
<rect x="81" y="51" width="1" height="14" fill="#FFFFFF" />
<rect x="82" y="51" width="2" height="1" fill="#000000" />
<rect x="44" y="52" width="2" height="15" fill="#FFFFFF" />
<rect x="82" y="52" width="2" height="15" fill="#FFFFFF" />
<rect x="28" y="53" width="15" height="1" fill="#000000" />
<rect x="43" y="53" width="1" height="16" fill="#FFFFFF" />
<rect x="84" y="53" width="1" height="16" fill="#FFFFFF" />
<rect x="85" y="53" width="15" height="1" fill="#000000" />
<rect x="28" y="54" width="14" height="1" fill="#000000" />
<rect x="42" y="54" width="1" height="17" fill="#FFFFFF" />
<rect x="85" y="54" width="1" height="17" fill="#FFFFFF" />
<rect x="86" y="54" width="14" height="1" fill="#000000" />
<rect x="10" y="55" width="1" height="14" fill="#000000" />
<rect x="28" y="55" width="13" height="1" fill="#000000" />
<rect x="41" y="55" width="1" height="17" fill="#FFFFFF" />
<rect x="86" y="55" width="1" height="17" fill="#FFFFFF" />
<rect x="87" y="55" width="13" height="1" fill="#000000" />
<rect x="117" y="55" width="1" height="14" fill="#000000" />
<rect x="28" y="56" width="12" height="1" fill="#000000" />
<rect x="40" y="56" width="1" height="17" fill="#FFFFFF" />
<rect x="87" y="56" width="1" height="17" fill="#FFFFFF" />
<rect x="88" y="56" width="12" height="1" fill="#000000" />
<rect x="28" y="57" width="11" height="1" fill="#000000" />
<rect x="39" y="57" width="1" height="18" fill="#FFFFFF" />
<rect x="51" y="57" width="7" height="1" fill="#FFFFFF" />
<rect x="58" y="57" width="1" height="28" fill="#000000" />
<rect x="69" y="57" width="1" height="28" fill="#000000" />
<rect x="70" y="57" width="7" height="1" fill="#FFFFFF" />
<rect x="88" y="57" width="1" height="18" fill="#FFFFFF" />
<rect x="89" y="57" width="11" height="1" fill="#000000" />
<rect x="28" y="58" width="10" height="1" fill="#000000" />
<rect x="38" y="58" width="1" height="18" fill="#FFFFFF" />
<rect x="51" y="58" width="4" height="1" fill="#FFFFFF" />
<rect x="55" y="58" width="3" height="27" fill="#000000" />
<rect x="70" y="58" width="3" height="27" fill="#000000" />
<rect x="73" y="58" width="4" height="1" fill="#FFFFFF" />
<rect x="89" y="58" width="1" height="18" fill="#FFFFFF" />
<rect x="90" y="58" width="10" height="1" fill="#000000" />
<rect x="28" y="59" width="9" height="1" fill="#000000" />
<rect x="37" y="59" width="1" height="19" fill="#FFFFFF" />
<rect x="51" y="59" width="2" height="1" fill="#FFFFFF" />
<rect x="53" y="59" width="2" height="27" fill="#000000" />
<rect x="73" y="59" width="2" height="27" fill="#000000" />
<rect x="75" y="59" width="2" height="1" fill="#FFFFFF" />
<rect x="90" y="59" width="1" height="19" fill="#FFFFFF" />
<rect x="91" y="59" width="9" height="1" fill="#000000" />
<rect x="28" y="60" width="8" height="1" fill="#000000" />
<rect x="36" y="60" width="1" height="20" fill="#FFFFFF" />
<rect x="51" y="60" width="2" height="26" fill="#000000" />
<rect x="75" y="60" width="2" height="26" fill="#000000" />
<rect x="91" y="60" width="1" height="20" fill="#FFFFFF" />
<rect x="92" y="60" width="8" height="1" fill="#000000" />
<rect x="28" y="61" width="7" height="2" fill="#000000" />
<rect x="35" y="61" width="1" height="20" fill="#FFFFFF" />
<rect x="49" y="61" width="1" height="1" fill="#FFFFFF" />
<rect x="50" y="61" width="1" height="25" fill="#000000" />
<rect x="77" y="61" width="1" height="25" fill="#000000" />
<rect x="78" y="61" width="1" height="1" fill="#FFFFFF" />
<rect x="92" y="61" width="1" height="20" fill="#FFFFFF" />
<rect x="93" y="61" width="7" height="2" fill="#000000" />
<rect x="49" y="62" width="1" height="24" fill="#000000" />
<rect x="78" y="62" width="1" height="24" fill="#000000" />
<rect x="28" y="63" width="6" height="1" fill="#000000" />
<rect x="34" y="63" width="1" height="21" fill="#FFFFFF" />
<rect x="47" y="63" width="1" height="1" fill="#FFFFFF" />
<rect x="48" y="63" width="1" height="23" fill="#000000" />
<rect x="79" y="63" width="1" height="23" fill="#000000" />
<rect x="80" y="63" width="1" height="1" fill="#FFFFFF" />
<rect x="93" y="63" width="1" height="21" fill="#FFFFFF" />
<rect x="94" y="63" width="6" height="1" fill="#000000" />
<rect x="28" y="64" width="5" height="1" fill="#000000" />
<rect x="33" y="64" width="1" height="22" fill="#FFFFFF" />
<rect x="47" y="64" width="1" height="22" fill="#000000" />
<rect x="80" y="64" width="1" height="22" fill="#000000" />
<rect x="94" y="64" width="1" height="22" fill="#FFFFFF" />
<rect x="95" y="64" width="5" height="1" fill="#000000" />
<rect x="28" y="65" width="4" height="2" fill="#000000" />
<rect x="32" y="65" width="1" height="31" fill="#FFFFFF" />
<rect x="46" y="65" width="1" height="21" fill="#000000" />
<rect x="81" y="65" width="1" height="21" fill="#000000" />
<rect x="95" y="65" width="1" height="31" fill="#FFFFFF" />
<rect x="96" y="65" width="4" height="2" fill="#000000" />
<rect x="28" y="67" width="3" height="2" fill="#000000" />
<rect x="31" y="67" width="1" height="29" fill="#FFFFFF" />
<rect x="44" y="67" width="1" height="1" fill="#FFFFFF" />
<rect x="45" y="67" width="1" height="19" fill="#000000" />
<rect x="82" y="67" width="1" height="19" fill="#000000" />
<rect x="83" y="67" width="1" height="1" fill="#FFFFFF" />
<rect x="96" y="67" width="1" height="29" fill="#FFFFFF" />
<rect x="97" y="67" width="3" height="2" fill="#000000" />
<rect x="44" y="68" width="1" height="18" fill="#000000" />
<rect x="83" y="68" width="1" height="18" fill="#000000" />
<rect x="28" y="69" width="2" height="2" fill="#000000" />
<rect x="30" y="69" width="1" height="27" fill="#FFFFFF" />
<rect x="43" y="69" width="1" height="17" fill="#000000" />
<rect x="84" y="69" width="1" height="17" fill="#000000" />
<rect x="97" y="69" width="1" height="27" fill="#FFFFFF" />
<rect x="98" y="69" width="2" height="2" fill="#000000" />
<rect x="28" y="71" width="1" height="2" fill="#000000" />
<rect x="29" y="71" width="1" height="25" fill="#FFFFFF" />
<rect x="42" y="71" width="1" height="16" fill="#000000" />
<rect x="85" y="71" width="1" height="16" fill="#000000" />
<rect x="98" y="71" width="1" height="25" fill="#FFFFFF" />
<rect x="99" y="71" width="1" height="2" fill="#000000" />
<rect x="41" y="72" width="1" height="15" fill="#000000" />
<rect x="86" y="72" width="1" height="15" fill="#000000" />
<rect x="28" y="73" width="1" height="23" fill="#FFFFFF" />
<rect x="40" y="73" width="1" height="14" fill="#000000" />
<rect x="87" y="73" width="1" height="14" fill="#000000" />
<rect x="99" y="73" width="1" height="23" fill="#FFFFFF" />
<rect x="39" y="75" width="1" height="12" fill="#000000" />
<rect x="88" y="75" width="1" height="12" fill="#000000" />
<rect x="27" y="76" width="1" height="20" fill="#FFFFFF" />
<rect x="38" y="76" width="1" height="11" fill="#000000" />
<rect x="89" y="76" width="1" height="11" fill="#000000" />
<rect x="100" y="76" width="1" height="20" fill="#FFFFFF" />
<rect x="37" y="78" width="1" height="9" fill="#000000" />
<rect x="90" y="78" width="1" height="9" fill="#000000" />
<rect x="26" y="79" width="1" height="17" fill="#FFFFFF" />
<rect x="101" y="79" width="1" height="17" fill="#FFFFFF" />
<rect x="36" y="80" width="1" height="7" fill="#000000" />
<rect x="91" y="80" width="1" height="7" fill="#000000" />
<rect x="35" y="81" width="1" height="6" fill="#000000" />
<rect x="92" y="81" width="1" height="6" fill="#000000" />
<rect x="25" y="82" width="1" height="14" fill="#FFFFFF" />
<rect x="102" y="82" width="1" height="14" fill="#FFFFFF" />
<rect x="34" y="84" width="1" height="3" fill="#000000" />
<rect x="93" y="84" width="1" height="3" fill="#000000" />
<rect x="24" y="85" width="1" height="11" fill="#FFFFFF" />
<rect x="55" y="85" width="1" height="1" fill="#000000" />
<rect x="56" y="85" width="3" height="11" fill="#FFFFFF" />
<rect x="60" y="85" width="1" height="2" fill="#000000" />
<rect x="61" y="85" width="6" height="1" fill="#FFFFFF" />
<rect x="67" y="85" width="1" height="2" fill="#000000" />
<rect x="69" y="85" width="3" height="11" fill="#FFFFFF" />
<rect x="72" y="85" width="1" height="1" fill="#000000" />
<rect x="103" y="85" width="1" height="11" fill="#FFFFFF" />
<rect x="33" y="86" width="1" height="1" fill="#000000" />
<rect x="43" y="86" width="13" height="10" fill="#FFFFFF" />
<rect x="59" y="86" width="1" height="10" fill="#FFFFFF" />
<rect x="61" y="86" width="6" height="1" fill="#000000" />
<rect x="68" y="86" width="1" height="10" fill="#FFFFFF" />
<rect x="72" y="86" width="13" height="10" fill="#FFFFFF" />
<rect x="94" y="86" width="1" height="1" fill="#000000" />
<rect x="23" y="87" width="1" height="7" fill="#FFFFFF" />
<rect x="33" y="87" width="10" height="9" fill="#FFFFFF" />
<rect x="60" y="87" width="8" height="9" fill="#FFFFFF" />
<rect x="85" y="87" width="10" height="9" fill="#FFFFFF" />
<rect x="104" y="87" width="1" height="7" fill="#FFFFFF" />
<rect x="22" y="89" width="1" height="4" fill="#FFFFFF" />
<rect x="105" y="89" width="1" height="4" fill="#FFFFFF" />
<rect x="21" y="90" width="1" height="2" fill="#FFFFFF" />
<rect x="106" y="90" width="1" height="2" fill="#FFFFFF" />
<rect x="21" y="92" width="1" height="3" fill="#000000" />
<rect x="106" y="92" width="1" height="3" fill="#000000" />
<rect x="22" y="93" width="1" height="3" fill="#000000" />
<rect x="105" y="93" width="1" height="3" fill="#000000" />
<rect x="23" y="94" width="1" height="3" fill="#000000" />
<rect x="104" y="94" width="1" height="3" fill="#000000" />
<rect x="24" y="96" width="80" height="2" fill="#000000" />
<rect x="25" y="98" width="78" height="1" fill="#000000" />
<rect x="26" y="99" width="76" height="1" fill="#000000" />
<rect x="27" y="100" width="74" height="1" fill="#000000" />
<rect x="28" y="101" width="72" height="1" fill="#000000" />
<rect x="29" y="102" width="70" height="1" fill="#000000" />
<rect x="31" y="103" width="66" height="1" fill="#000000" />
<rect x="32" y="104" width="64" height="1" fill="#000000" />
<rect x="33" y="105" width="62" height="1" fill="#000000" />
<rect x="35" y="106" width="58" height="1" fill="#000000" />
<rect x="36" y="107" width="56" height="1" fill="#000000" />
<rect x="38" y="108" width="52" height="1" fill="#000000" />
<rect x="40" y="109" width="48" height="1" fill="#000000" />
<rect x="42" y="110" width="44" height="1" fill="#000000" />
<rect x="45" y="111" width="38" height="1" fill="#000000" />
<rect x="47" y="112" width="34" height="1" fill="#000000" />
<rect x="51" y="113" width="26" height="1" fill="#000000" />
<rect x="56" y="114" width="16" height="1" fill="#000000" />
</svg>